HIERARCHY
ROOT Hips
{
	OFFSET 0.000000 0.000000 0.000000 
	CHANNELS 6 Xposition Yposition Zposition Yrotation Zrotation Xrotation 
	JOINT Lumbar
	{
		OFFSET 0.000000 0.000000 0.000000 
		CHANNELS 3 Zrotation Xrotation Yrotation
		JOINT Neck
		{
			OFFSET 0.000000 0.445665 0.000000 
			CHANNELS 3 Zrotation Xrotation Yrotation
			End Site
			{
				OFFSET 0.000000 0.227535 0.000000 
			}
		}
		JOINT RightShoulder
		{
			OFFSET 0.019635 0.377685 0.194865 
			CHANNELS 3 Zrotation Xrotation Yrotation
			JOINT RightElbow
			{
				OFFSET 0.000000 -0.243375 0.000000 
				CHANNELS 2 Zrotation Yrotation
				JOINT RightWrist
				{
					OFFSET 0.000000 -0.264825 0.000000 
					CHANNELS 2 Zrotation Xrotation
					End Site
					{
						OFFSET 0.006600 -0.176220 0.000990 
					}
				}
			}
		}
		JOINT LeftShoulder
		{
			OFFSET 0.019635 0.377685 -0.194865 
			CHANNELS 3 Zrotation Xrotation Yrotation
			JOINT LeftElbow
			{
				OFFSET 0.000000 -0.243375 0.000000 
				CHANNELS 2 Zrotation Yrotation
				JOINT LeftWrist
				{
					OFFSET 0.000000 -0.264825 0.000000 
					CHANNELS 2 Zrotation Xrotation
					End Site
					{
						OFFSET 0.006600 -0.176220 -0.000990 
					}
				}
			}
		}
	}
	JOINT RightHip
	{
		OFFSET 0.052140 -0.069960 0.075570 
		CHANNELS 3 Zrotation Xrotation Yrotation
		JOINT RightKnee
		{
			OFFSET 0.000000 -0.402270 0.000000 
			CHANNELS 1 Zrotation
			JOINT RightAnkle
			{
				OFFSET 0.000000 -0.404085 0.000000 
				CHANNELS 3 Zrotation Xrotation Yrotation
				End Site
				{
					OFFSET 0.204105 -0.089430 0.008415 
				}
			}
		}
	}
	JOINT LeftHip
	{
		OFFSET 0.052140 -0.069960 -0.075570 
		CHANNELS 3 Zrotation Xrotation Yrotation
		JOINT LeftKnee
		{
			OFFSET 0.000000 -0.402270 0.000000 
			CHANNELS 1 Zrotation
			JOINT LeftAnkle
			{
				OFFSET 0.000000 -0.404085 0.000000 
				CHANNELS 3 Zrotation Xrotation Yrotation
				End Site
				{
					OFFSET 0.204105 -0.089430 -0.008415 
				}
			}
		}
	}
}
MOTION
Frames: 16
Frame Time: 0.02
-0.00023 3e-05 -0.00213 173.47007 -48.22288 -0.75528 61.15302 -0.50222 0.82439 -17.8176 -0.38776 -1.59574 62.2463 -100.67314 -87.12644 5.78742 73.37813 -8.6191 5.11893 44.70658 107.02806 87.12929 5.78747 -49.33676 -17.566 -5.39 51.55919 -3.25749 -8.7036 -18.97916 -7.74944 -3.78911 -4.11122 55.32713 7.52008 6.64852 -24.41603 -8.61204 4.0048 4.27775
-0.00036 0.00015 -0.00182 173.40143 -48.29668 -0.73391 61.22319 -0.48172 0.89202 -18.14093 -0.34694 -1.62108 62.56336 -101.64504 -87.12846 5.78737 72.58951 -9.04261 4.54624 46.3803 107.74109 87.13095 5.78742 -50.92667 -17.9432 -4.87653 51.62792 -3.30739 -8.75981 -18.9573 -7.73846 -3.7717 -4.10399 55.36731 7.56219 7.05062 -24.41018 -8.57735 3.97788 4.26319
-0.00049 0.00028 -0.00151 173.33303 -48.37027 -0.71251 61.29318 -0.46125 0.95941 -18.46337 -0.30631 -1.64635 62.87892 -102.614 -87.13048 5.78731 71.80328 -9.46497 3.97528 48.05026 108.45169 87.13261 5.78737 -52.51292 -18.31923 -4.36441 51.69648 -3.35728 -8.81607 -18.93551 -7.72751 -3.75433 -4.09676 55.40739 7.60413 7.45174 -24.40437 -8.54273 3.95103 4.24866
-0.00062 0.0004 -0.0012 173.26461 -48.44385 -0.6912 61.36313 -0.44081 1.02682 -18.78572 -0.26563 -1.67161 63.19492 -103.58296 -87.1325 5.78726 71.01711 -9.88721 3.40436 49.71909 109.16252 87.13427 5.78732 -54.09817 -18.69528 -3.85247 51.765 -3.40706 -8.87214 -18.91371 -7.71657 -3.73697 -4.08955 55.44745 7.6461 7.85266 -24.39854 -8.50814 3.92419 4.23415
-0.00076 0.00053 -0.00089 173.19594 -48.51761 -0.66997 61.43326 -0.42034 1.09449 -19.1089 -0.22472 -1.69694 63.51264 -104.55473 -87.13453 5.78721 70.22848 -10.31051 2.83168 51.39107 109.87575 87.13594 5.78727 -55.68648 -19.07246 -3.3393 51.83367 -3.45678 -8.92805 -18.89185 -7.70561 -3.71957 -4.08232 55.48759 7.68828 8.25443 -24.39268 -8.47347 3.89729 4.2196
-0.00089 0.00065 -0.00058 173.1281 -48.59084 -0.64822 61.50295 -0.39988 1.1613 -19.42976 -0.1847 -1.72205 63.82362 -105.51766 -87.13654 5.78715 69.44727 -10.73085 2.26436 53.05662 110.58074 87.13758 5.78722 -57.26823 -19.44604 -2.82943 51.90199 -3.50702 -8.98503 -18.87021 -7.69466 -3.70225 -4.07511 55.52755 7.72969 8.65414 -24.38696 -8.43898 3.87053 4.20513
-0.00102 0.00078 -0.00027 173.05869 -48.66508 -0.62752 61.57343 -0.37944 1.22974 -19.75493 -0.14293 -1.74759 64.14778 -106.49754 -87.13858 5.7871 68.65228 -11.15674 1.687 54.73344 111.30178 87.13926 5.78717 -58.86174 -19.82653 -2.31343 51.97095 -3.55618 -9.03984 -18.84814 -7.68372 -3.6848 -4.06787 55.56785 7.77261 9.05763 -24.38096 -8.40417 3.84353 4.19051
-0.00115 0.0009 4e-05 172.99067 -48.73835 -0.60588 61.64321 -0.35897 1.29671 -20.07613 -0.10277 -1.77273 64.45986 -107.46139 -87.14059 5.78705 67.8695 -11.57743 1.11868 56.39955 112.00757 87.14091 5.78712 -60.44385 -20.20049 -1.80318 52.0393 -3.60631 -9.09659 -18.82647 -7.67276 -3.66746 -4.06066 55.6078 7.81413 9.45752 -24.37522 -8.36966 3.81675 4.17604
-0.00128 0.00102 0.00036 172.92455 -48.8106 -0.58295 61.71207 -0.33846 1.36177 -20.39265 -0.06461 -1.79739 64.75694 -108.40766 -87.14256 5.787 67.10327 -11.99229 0.56203 58.05477 112.69672 87.14253 5.78707 -62.01508 -20.56726 -1.2993 52.10703 -3.65778 -9.156 -18.80528 -7.66182 -3.65029 -4.05347 55.64747 7.85396 9.85366 -24.36978 -8.33548 3.79021 4.16172
-0.00144 0.00116 0.00065 172.84809 -48.88924 -0.56701 61.78604 -0.31817 1.43747 -20.73663 -0.01503 -1.82485 65.13958 -109.46118 -87.14477 5.78694 66.24665 -12.44227 -0.05992 59.77935 113.48764 87.14434 5.78701 -63.65817 -20.97778 -0.75679 52.17868 -3.70202 -9.20097 -18.78129 -7.65086 -3.63223 -4.04614 55.68919 7.90356 10.27332 -24.36257 -8.29928 3.76218 4.14645
-0.00153 0.00126 0.00098 172.79311 -48.95408 -0.5366 61.84931 -0.29744 1.49094 -21.02228 0.01053 -1.84638 65.34223 -110.28445 -87.14648 5.78689 65.57774 -12.8171 -0.54523 61.35305 114.06 87.14574 5.78697 -65.14351 -21.29444 -0.29711 52.24185 -3.76117 -9.27582 -18.76325 -7.6399 -3.61599 -4.0391 55.72631 7.93254 10.6421 -24.35912 -8.26743 3.7374 4.13322
-0.00143 0.00129 0.0014 172.80039 -48.98322 -0.46396 61.88226 -0.27519 1.48103 -21.14965 -0.03106 -1.85152 65.04206 -110.50207 -87.14678 5.78688 65.45388 -12.99244 -0.64266 62.54624 114.0581 87.14603 5.78696 -66.243 -21.36395 -0.05571 52.28316 -3.86443 -9.43857 -18.76125 -7.62952 -3.60521 -4.03306 55.75265 7.90461 10.88039 -24.36595 -8.24676 3.72085 4.1252
-0.00126 0.00128 0.00184 172.82864 -48.99801 -0.37728 61.90457 -0.25257 1.44922 -21.21819 -0.09651 -1.85073 64.56306 -110.48343 -87.14659 5.78689 65.51322 -13.09099 -0.60523 63.58133 113.83187 87.14591 5.78697 -67.17547 -21.33726 0.10082 52.3156 -3.98204 -9.63023 -18.76529 -7.61906 -3.59616 -4.02728 55.77393 7.85609 11.06591 -24.37658 -8.23058 3.7077 4.11929
-0.00112 0.00129 0.00226 172.84511 -49.01811 -0.29861 61.93248 -0.23027 1.429 -21.31236 -0.15026 -1.85271 64.17134 -110.5561 -87.14663 5.78689 65.46882 -13.22044 -0.63803 64.66739 113.69184 87.14597 5.78698 -68.15361 -21.34781 0.29036 52.35132 -4.09107 -9.80481 -18.76673 -7.60825 -3.58596 -4.02124 55.79643 7.81717 11.26957 -24.38549 -8.21283 3.69344 4.11268
-0.00098 0.0013 0.00271 172.87106 -49.04375 -0.2129 61.95745 -0.20722 1.40187 -21.41074 -0.2078 -1.8543 63.75275 -110.69697 -87.14664 5.78689 65.51015 -13.36699 -0.633 65.84294 113.61844 87.14606 5.78698 -69.2588 -21.38561 0.50336 52.39064 -4.20896 -9.99611 -18.76753 -7.599 -3.57724 -4.01578 55.82387 7.77702 11.49769 -24.39437 -8.19309 3.67735 4.10499
-0.00083 0.00129 0.00311 172.8823 -49.05388 -0.13868 61.98563 -0.18576 1.38384 -21.48682 -0.26294 -1.85536 63.34918 -110.63871 -87.14658 5.78689 65.41773 -13.45923 -0.67454 66.79253 113.35235 87.14598 5.78699 -70.0601 -21.34375 0.64718 52.41982 -4.31162 -10.1594 -18.77116 -7.58658 -3.56593 -4.00922 55.83931 7.73476 11.66249 -24.40421 -8.1786 3.6659 4.10005
